<svg width="16" height="17" viewBox="0 0 16 17" fill="none" xmlns="http://www.w3.org/2000/svg">
<path fill-rule="evenodd" clip-rule="evenodd" d="M12.6026 4.49655V5.77433C14.0379 6.22234 15.0837 7.52166 15.0837 9.07355V13.1876C15.0837 15.1089 13.4909 16.6665 11.5272 16.6665H4.47432C2.50979 16.6665 0.916992 15.1089 0.916992 13.1876V9.07355C0.916992 7.52166 1.96362 6.22234 3.39806 5.77433V4.49655C3.40653 2.0122 5.46421 -0.00012207 7.98762 -0.00012207C10.5449 -0.00012207 12.6026 2.0122 12.6026 4.49655ZM8.00456 1.44908C9.72353 1.44908 11.1207 2.81547 11.1207 4.49655V5.59463H4.87993V4.47999C4.8884 2.80719 6.28559 1.44908 8.00456 1.44908ZM8.74126 12.0457C8.74126 12.4514 8.41101 12.7744 7.99609 12.7744C7.58964 12.7744 7.25939 12.4514 7.25939 12.0457V10.2072C7.25939 9.80974 7.58964 9.48678 7.99609 9.48678C8.41101 9.48678 8.74126 9.80974 8.74126 10.2072V12.0457Z" fill="#212121"/>
</svg>
