<svg width="20" height="21" viewBox="0 0 20 21" fill="none" xmlns="http://www.w3.org/2000/svg">
<path fill-rule="evenodd" clip-rule="evenodd" d="M8.16972 13.0437C8.69011 13.3965 9.32434 13.6098 9.99923 13.6098C11.7881 13.6098 13.2436 12.1412 13.2436 10.3363C13.2436 9.65534 13.0321 9.01541 12.6825 8.49033L11.7962 9.3846C11.9426 9.66354 12.0239 9.99171 12.0239 10.3363C12.0239 11.4603 11.1132 12.3791 9.99923 12.3791C9.65772 12.3791 9.33247 12.2971 9.05601 12.1494L8.16972 13.0437ZM15.3577 5.79114C16.5367 6.8741 17.5368 8.33445 18.2849 10.0902C18.3499 10.246 18.3499 10.4265 18.2849 10.5742C16.5448 14.6599 13.4468 17.1048 9.99923 17.1048H9.9911C8.42178 17.1048 6.91752 16.5879 5.59214 15.6444L4.0147 17.2361C3.89273 17.3591 3.73824 17.4165 3.58375 17.4165C3.42926 17.4165 3.26663 17.3591 3.1528 17.2361C2.94952 17.0309 2.91699 16.7028 3.07962 16.4649L3.10401 16.432L15.13 4.29797C15.1462 4.28156 15.1625 4.26515 15.1706 4.24874L15.1706 4.24874C15.1869 4.23233 15.2032 4.21593 15.2113 4.19952L15.9756 3.42832C16.2196 3.1904 16.6017 3.1904 16.8375 3.42832C17.0815 3.66624 17.0815 4.06005 16.8375 4.29797L15.3577 5.79114ZM6.74896 10.3395C6.74896 10.5528 6.77336 10.7661 6.80588 10.963L3.79735 13.9986C2.98424 13.0469 2.27683 11.8983 1.71578 10.5774C1.65073 10.4297 1.65073 10.2492 1.71578 10.0934C3.45585 6.00765 6.55381 3.57099 9.99329 3.57099H10.0014C11.1642 3.57099 12.2944 3.84994 13.3352 4.37501L10.6194 7.11522C10.4242 7.08241 10.2128 7.05779 10.0014 7.05779C8.20444 7.05779 6.74896 8.52635 6.74896 10.3395Z" fill="#212121"/>
</svg>
