<svg width="20" height="21" viewBox="0 0 20 21" fill="none" xmlns="http://www.w3.org/2000/svg">
<path fill-rule="evenodd" clip-rule="evenodd" d="M14.6026 6.49655V7.77433C16.0379 8.22234 17.0837 9.52166 17.0837 11.0735V15.1876C17.0837 17.1089 15.4909 18.6665 13.5272 18.6665H6.47432C4.50979 18.6665 2.91699 17.1089 2.91699 15.1876V11.0735C2.91699 9.52166 3.96362 8.22234 5.39806 7.77433V6.49655C5.40653 4.0122 7.46421 1.99988 9.98762 1.99988C12.5449 1.99988 14.6026 4.0122 14.6026 6.49655ZM10.0046 3.44908C11.7235 3.44908 13.1207 4.81547 13.1207 6.49655V7.59463H6.87993V6.47999C6.8884 4.80719 8.28559 3.44908 10.0046 3.44908ZM10.7413 14.0457C10.7413 14.4514 10.411 14.7744 9.99609 14.7744C9.58964 14.7744 9.25939 14.4514 9.25939 14.0457V12.2072C9.25939 11.8097 9.58964 11.4868 9.99609 11.4868C10.411 11.4868 10.7413 11.8097 10.7413 12.2072V14.0457Z" fill="#212121"/>
</svg>
